<?xml version="1.0" standalone="no"?><!DOCTYPE svg PUBLIC "-//W3C//DTD SVG 1.1//EN" "http://www.w3.org/Graphics/SVG/1.1/DTD/svg11.dtd"><svg t="1620992804258" class="icon" viewBox="0 0 1024 1024" version="1.1" xmlns="http://www.w3.org/2000/svg" p-id="7602" xmlns:xlink="http://www.w3.org/1999/xlink" width="200" height="200"><defs><style type="text/css"></style></defs><path d="M512 1024c210.634 0 381.388-170.752 381.388-381.388C893.388 320.49 679.582 0 512 0S130.612 320.49 130.612 642.612C130.612 853.248 301.366 1024 512 1024z" fill="#54B88B" p-id="7603"></path><path d="M512 0c-103.856 0-225.46 123.094-302.93 293.378 85.698 13.874 184.824 21.616 302.93 21.616s217.232-7.742 302.93-21.616C737.458 123.094 615.856 0 512 0z" fill="#FBDD56" p-id="7604"></path><path d="M130.644 645.058C131.962 854.564 302.184 1024 512 1024s380.038-169.436 381.356-378.942c0 0-148.112-67.662-381.356-67.662S130.644 645.058 130.644 645.058z" fill="#B5E489" p-id="7605"></path><path d="M872.07 742.654c-21.682 3.934-43.896-3-59.432-18.534-37.836-37.832-99.39-37.834-137.226 0.002-12.66 12.66-29.494 19.634-47.398 19.634-17.906 0-34.74-6.972-47.4-19.634-37.836-37.832-99.39-37.832-137.226 0-26.138 26.136-68.664 26.136-94.8 0-37.836-37.83-99.392-37.834-137.224 0a67.11 67.11 0 0 1-59.434 18.534 14.894 14.894 0 0 0-7.824 0.68 377.93 377.93 0 0 0 9.48 29.82c29.07 3.11 58.17-7.002 78.992-27.82 26.132-26.136 68.664-26.136 94.796 0 37.834 37.828 99.39 37.832 137.228 0 26.132-26.136 68.664-26.136 94.796 0 18.328 18.326 42.696 28.42 68.616 28.42 25.918 0 50.286-10.094 68.614-28.42 26.132-26.136 68.662-26.136 94.798 0 20.82 20.818 49.916 30.93 78.99 27.82a378.878 378.878 0 0 0 9.478-29.814 14.88 14.88 0 0 0-7.824-0.688z m-128.044 74.454c-25.918 0-50.286 10.094-68.614 28.42-26.132 26.138-68.662 26.134-94.798 0.002-18.328-18.328-42.696-28.422-68.614-28.422-25.918 0-50.286 10.094-68.612 28.42-26.136 26.138-68.664 26.134-94.8 0.002-18.328-18.328-42.696-28.422-68.614-28.422s-50.286 10.094-68.612 28.42a66.86 66.86 0 0 1-14.978 11.232 382.706 382.706 0 0 0 17.964 24.276 96.778 96.778 0 0 0 18.226-14.294c12.66-12.66 29.494-19.632 47.398-19.632 17.904 0 34.738 6.972 47.4 19.634 37.834 37.832 99.392 37.83 137.226-0.002 12.66-12.66 29.494-19.632 47.398-19.632 17.904 0 34.738 6.972 47.4 19.634 37.828 37.83 99.39 37.834 137.226-0.002 12.66-12.66 29.494-19.632 47.398-19.632s34.738 6.972 47.4 19.634a96.758 96.758 0 0 0 18.228 14.288 382.564 382.564 0 0 0 17.96-24.272 66.846 66.846 0 0 1-14.976-11.228c-18.322-18.33-42.688-28.424-68.606-28.424z" fill="#FFFFFF" p-id="7606"></path><path d="M512 0c-79.698 0-169.85 72.49-242.488 183.168 61.46 19.498 137.462 31.336 242.488 31.336s181.028-11.838 242.488-31.336C681.85 72.49 591.698 0 512 0z" fill="#F985AC" p-id="7607"></path><path d="M512 107.252m-42.55 0a42.55 42.55 0 1 0 85.1 0 42.55 42.55 0 1 0-85.1 0Z" fill="#FBDD56" p-id="7608"></path><path d="M383.084 54.052c-19.686 15.684-39.138 34.43-57.99 55.804 6.786 14.488 21.456 24.548 38.514 24.548 23.5 0 42.55-19.05 42.55-42.55-0.002-16.474-9.382-30.732-23.074-37.802zM640.916 54.052c19.686 15.684 39.138 34.43 57.99 55.804-6.786 14.488-21.456 24.548-38.514 24.548-23.5 0-42.55-19.05-42.55-42.55 0.002-16.474 9.382-30.732 23.074-37.802z" fill="#FBDD56" p-id="7609"></path><path d="M376.996 451.112a14.998 14.998 0 0 1-15-15v-22.788c0-8.286 6.714-15 15-15s15 6.714 15 15v22.788a15 15 0 0 1-15 15zM512 492.01c-21.242 0-38.464-17.22-38.464-38.464v-27.964a10.5 10.5 0 0 1 10.5-10.5h55.926a10.5 10.5 0 0 1 10.5 10.5v27.964c0.002 21.244-17.22 38.464-38.462 38.464zM647.004 451.112a14.998 14.998 0 0 1-15-15v-22.788c0-8.286 6.714-15 15-15a15 15 0 0 1 15 15v22.788a15 15 0 0 1-15 15z" fill="#414B58" p-id="7610"></path><path d="M490.978 1.636C327.09 26.536 130.612 333.818 130.612 642.612 130.612 853.248 301.366 1024 512 1024c18.78 0 37.236-1.382 55.29-4.004C203.436 864.214 365.624 151.46 490.978 1.636z" opacity=".1" p-id="7611"></path></svg>