<?xml version="1.0" standalone="no"?><!DOCTYPE svg PUBLIC "-//W3C//DTD SVG 1.1//EN" "http://www.w3.org/Graphics/SVG/1.1/DTD/svg11.dtd"><svg t="1620992854916" class="icon" viewBox="0 0 1024 1024" version="1.1" xmlns="http://www.w3.org/2000/svg" p-id="7763" xmlns:xlink="http://www.w3.org/1999/xlink" width="200" height="200"><defs><style type="text/css"></style></defs><path d="M174.05768 589.453151c-86.634169-31.532062-147.610288-93.624183-167.294327-170.354332-17.696035-68.984135-0.282001-140.006273 47.776094-194.856381 41.970082-47.902094 110.420216-63.466124 174.956341-39.976078 0.764001 0.278001 1.524003 0.560001 2.288005 0.850002 33.038065 12.518024 61.34012 33.958066 81.84216 62.000121 22.500044 30.77806 34.292067 68.144133 34.100066 108.058211l-71.212139-0.342001c0.272001-56.38811-35.96207-90.240176-69.960137-103.122201-0.462001-0.174-0.924002-0.348001-1.388002-0.516001-36.696072-13.356026-74.662146-5.588011-97.06219 19.976039-32.330063 36.900072-44.124086 84.366165-32.358063 130.230254 13.754027 53.612105 58.464114 97.764191 122.67024 121.132237l-24.358048 66.92013zM676.302661 573.61312c30.74806-23.316046 148.47429-126.814248 247.932484-112.348219l1.258003-99.308194c-67.196131-4.078008-241.164471 33.750066-271.540531 44.074086l22.350044 167.582327z" fill="#F985AC" p-id="7764"></path><path d="M1000.727295 498.594974l-78.152153-14.132028a18.564036 18.564036 0 0 1-14.980029-15.046029l-19.218038-108.994213a18.566036 18.566036 0 0 1 8.932018-19.262038l68.604134-40.010078c11.874023-6.924014 27.014053 0.096 29.400057 13.632027l28.380055 160.948314c2.386005 13.536026-9.440018 25.310049-22.966044 22.864045z" fill="#B5E489" p-id="7765"></path><path d="M971.765238 298.910584a19.766039 19.766039 0 0 0-5.852011 2.238004l-68.604134 40.010078a18.570036 18.570036 0 0 0-8.932018 19.262038l19.218038 108.994213a18.564036 18.564036 0 0 0 14.980029 15.046029l48.426094 8.758017c-56.35211-62.264122-21.664042-161.334315 0.764002-194.308379z" opacity=".1" p-id="7766"></path><path d="M592.976498 848.243657L116.867568 674.955318c-22.076043-8.034016-31.368061-34.190067-19.312037-54.352106l186.844364-312.48461c13.790027-23.064045 42.012082-33.092065 67.264132-23.900047l312.61061 113.780222c25.252049 9.190018 40.424079 35.012068 36.164071 61.544121L642.708595 819.0216c-3.726007 23.194045-27.658054 37.256073-49.732097 29.222057z" fill="#FFA6BB" p-id="7767"></path><path d="M670.83265 643.889258L188.583708 468.364915l-15.53603 25.982051 492.984963 179.43235 4.800009-29.890058z m-9.472018 58.976115L157.929648 519.631015l-15.53603 25.982051 514.167004 187.142365 4.80001-29.890058z" fill="#F985AC" p-id="7768"></path><path d="M642.708595 819.0216l6.784014-42.238083-529.981036-192.896377-21.954042 36.716072c-12.056024 20.162039-2.762005 46.31809 19.312037 54.352106l476.10693 173.288339c22.074043 8.034016 46.00609-6.028012 49.732097-29.222057z" fill="#B5E489" p-id="7769"></path><path d="M444.764209 514.763005c26.678052 9.710019 56.17411-4.046008 65.884128-30.72206 9.412018-25.860051-3.774007-61.55212-12.798025-81.098158a16.384032 16.384032 0 0 0-21.878042-7.962016c-19.476038 9.174018-52.520103 28.038055-61.932121 53.898106-9.708019 26.676052 4.046008 56.17411 30.72406 65.884128z" fill="#FFFFFF" p-id="7770"></path><path d="M403.476128 303.074592l-51.812101-18.858037c-25.252049-9.190018-53.472104 0.838002-67.264132 23.900047L97.555531 620.601212c-12.056024 20.162039-2.762005 46.31809 19.312037 54.352106l265.572519 96.660189c-121.202237-114.584224-26.968053-382.328747 21.036041-468.538915z" opacity=".1" p-id="7771"></path></svg>